<?xml version="1.0" encoding="UTF-8" standalone="no"?>
<!-- Generator: Adobe Illustrator 19.0.0, SVG Export Plug-In . SVG Version: 6.00 Build 0)  -->

<svg
   xmlns:dc="http://purl.org/dc/elements/1.1/"
   xmlns:cc="http://creativecommons.org/ns#"
   xmlns:rdf="http://www.w3.org/1999/02/22-rdf-syntax-ns#"
   xmlns:svg="http://www.w3.org/2000/svg"
   xmlns="http://www.w3.org/2000/svg"
   xmlns:sodipodi="http://sodipodi.sourceforge.net/DTD/sodipodi-0.dtd"
   xmlns:inkscape="http://www.inkscape.org/namespaces/inkscape"
   version="1.1"
   id="Layer_1"
   x="0px"
   y="0px"
   viewBox="0 0 511.996 511.996"
   style="enable-background:new 0 0 511.996 511.996;"
   xml:space="preserve"
   sodipodi:docname="exchange_card.svg"
   inkscape:version="0.92.3 (2405546, 2018-03-11)"><metadata
   id="metadata55"><rdf:RDF><cc:Work
       rdf:about=""><dc:format>image/svg+xml</dc:format><dc:type
         rdf:resource="http://purl.org/dc/dcmitype/StillImage" /></cc:Work></rdf:RDF></metadata><defs
   id="defs53" /><sodipodi:namedview
   pagecolor="#ffffff"
   bordercolor="#666666"
   borderopacity="1"
   objecttolerance="10"
   gridtolerance="10"
   guidetolerance="10"
   inkscape:pageopacity="0"
   inkscape:pageshadow="2"
   inkscape:window-width="1193"
   inkscape:window-height="856"
   id="namedview51"
   showgrid="false"
   inkscape:zoom="0.4609411"
   inkscape:cx="1.7854968"
   inkscape:cy="255.998"
   inkscape:window-x="67"
   inkscape:window-y="27"
   inkscape:window-maximized="0"
   inkscape:current-layer="Layer_1" />
<path
   style="fill:#FFB14D;"
   d="M194.336,135.907c-13.993,0-27.31,2.884-39.391,8.089v46.932L49.865,212.571v81.731h63.838  c18.134,24.882,47.486,41.065,80.633,41.065h159.306l-60.388-199.012C293.253,136.355,220.025,135.907,194.336,135.907z"
   id="path2" />
<polygon
   style="fill:#FF9E24;"
   points="366.9,136.355 293.253,136.355 293.261,186.225 366.908,186.225 "
   id="polygon4" />
<rect
   x="195.559"
   y="170.348"
   transform="matrix(-0.7071 0.7071 -0.7071 -0.7071 770.732 192.7487)"
   style="fill:#E6E2E0;"
   width="299.775"
   height="171.3"
   id="rect6" />
<g
   id="g12">
	
	
</g>
<path
   style="fill:#FF9E24;"
   d="M295.964,250.094c-25.714-4.055-49.75-14.751-67.784-32.719  c-34.723-34.593-73.231-73.379-73.231-73.379h-0.004c-16.538,7.124-30.763,18.598-41.241,32.977H73.331l-37.91,34.219l44.057,44.057  c32.114,32.114,84.088,32.114,116.202,0c25.653,23.252,57.519,38.582,92.514,44.101c13.602,2.145,26.368-7.143,28.512-20.744  C318.852,265.006,309.566,252.239,295.964,250.094z"
   id="path14" />
<rect
   y="147.643"
   style="fill:#4C5870;"
   width="73.331"
   height="187.728"
   id="rect16" />
<circle
   style="fill:#181818;"
   cx="36.666"
   cy="285.506"
   r="11.733"
   id="circle18" />
<g
   id="g20">
</g>
<g
   id="g22">
</g>
<g
   id="g24">
</g>
<g
   id="g26">
</g>
<g
   id="g28">
</g>
<g
   id="g30">
</g>
<g
   id="g32">
</g>
<g
   id="g34">
</g>
<g
   id="g36">
</g>
<g
   id="g38">
</g>
<g
   id="g40">
</g>
<g
   id="g42">
</g>
<g
   id="g44">
</g>
<g
   id="g46">
</g>
<g
   id="g48">
</g>
<path
   style="fill:#c87137;fill-opacity:1;stroke-width:2.1694746"
   d="M 271.61822,294.90005 C 251.82405,289.73161 229.93644,279.49542 210.19447,266.174 l -14.78005,-9.97324 -10.41787,7.4845 c -31.06087,22.31501 -70.40504,20.44042 -101.580253,-4.83989 L 74.19603,251.36856 V 214.63274 177.89692 H 93.579815 112.9636 l 11.69474,-11.69474 c 6.4321,-6.43211 15.89627,-13.8382 21.03148,-16.45799 l 9.33674,-4.76325 39.31292,38.84127 c 54.0252,53.37703 57.20258,55.63666 90.78258,64.56116 23.98644,6.37484 29.88565,11.44654 29.88565,25.69342 0,11.05766 -4.60664,18.22906 -14.31543,22.28566 -8.96099,3.74414 -9.17532,3.73336 -29.07406,-1.4624 z"
   id="path48"
   inkscape:connector-curvature="0" /><path
   style="fill:#c87137;fill-opacity:1;stroke-width:2.1694746"
   d="M 293.31296,160.54112 V 136.6769 h 24.36959 24.3696 l -23.79023,23.86422 c -13.08462,13.12532 -24.05094,23.86422 -24.36959,23.86422 -0.31865,0 -0.57937,-10.7389 -0.57937,-23.86422 z"
   id="path50"
   inkscape:connector-curvature="0" /><path
   style="fill:#d38d5f;fill-opacity:1;stroke-width:2.1694746"
   d="m 201.15538,188.631 -44.70955,-44.23399 8.23065,-3.20977 c 6.35309,-2.47757 21.96396,-3.39303 68.43356,-4.01313 l 60.20292,-0.80336 v 24.59666 24.59666 l -23.72401,23.65046 -23.72402,23.65046 z"
   id="path52"
   inkscape:connector-curvature="0" /><path
   style="fill:#d38d5f;fill-opacity:1;stroke-width:2.1694746"
   d="m 164.79752,329.88626 c -15.78108,-5.04481 -31.38425,-15.03196 -42.75166,-27.36415 l -8.88865,-9.64304 H 93.676621 74.19603 V 273.3538 c 0,-10.7389 0.468327,-19.52527 1.040727,-19.52527 0.5724,0 6.077597,3.81226 12.233771,8.47169 6.156174,4.65944 17.423512,10.51702 25.038522,13.01685 27.44067,9.00813 51.18779,4.39458 79.09724,-15.36689 2.78051,-1.96876 5.19574,-1.44722 11.58522,2.5017 l 8.07236,4.98899 -16.9563,17.05634 -16.9563,17.05634 16.16416,16.27277 16.16417,16.27277 -16.21677,-0.11667 c -9.44128,-0.0679 -21.41785,-1.77933 -28.66531,-4.09616 z"
   id="path54"
   inkscape:connector-curvature="0" /><path
   style="fill:#c87137;fill-opacity:1;stroke-width:2.1694746"
   d="m 274.48527,295.04782 c -19.3851,-5.05794 -43.32003,-16.01128 -63.4676,-29.04468 l -15.43164,-9.98268 -11.62058,7.71563 c -30.68844,20.37598 -67.25307,18.76329 -98.746806,-4.35524 l -11.022613,-8.09134 v -36.6963 -36.69629 h 20.169718 20.169721 l 8.57582,-8.94203 c 4.7167,-4.91811 13.77656,-12.3183 20.13303,-16.44485 l 11.55722,-7.50284 41.93742,41.31485 c 23.06558,22.72317 46.66461,44.32051 52.44229,47.99409 5.77767,3.67359 19.96511,9.6244 31.52765,13.22402 11.56254,3.59963 23.48545,8.48192 26.4954,10.84953 10.71458,8.4281 9.16469,26.07506 -3.04396,34.65785 -8.57893,6.03106 -13.06718,6.3336 -29.67507,2.00028 z"
   id="path32"
   inkscape:connector-curvature="0" /><path
   style="fill:#c87137;fill-opacity:1;stroke-width:2.1694746"
   d="m 273.78769,294.91252 c -19.21735,-5.00311 -46.70593,-17.75615 -64.89151,-30.10574 l -13.0162,-8.83914 -12.93732,8.3618 c -16.96417,10.96447 -28.62054,14.02806 -49.46793,13.00144 -18.53288,-0.91265 -33.13435,-6.42618 -50.058432,-18.90213 l -9.220267,-6.79691 v -36.86746 -36.86746 h 20.158306 20.158303 l 9.67197,-9.87245 c 5.31959,-5.42984 14.38854,-12.90449 20.15324,-16.61033 l 10.48128,-6.73788 31.82348,31.39403 c 60.01661,59.20669 63.01009,61.41339 98.53177,72.63468 23.0009,7.26598 30.88253,14.57746 29.20405,27.09141 -1.36208,10.15506 -6.30432,16.48413 -16.11446,20.63632 -3.83963,1.62514 -7.25655,2.90104 -7.59317,2.83534 -0.33663,-0.0657 -7.93402,-2.02568 -16.88311,-4.35552 z"
   id="path34"
   inkscape:connector-curvature="0" /><path
   style="fill:#c87137;fill-opacity:1;stroke-width:2.1694746"
   d="m 283.55033,297.91307 c -22.08094,-4.94193 -55.40286,-19.73088 -76.47398,-33.9407 l -11.38974,-7.68095 -10.76626,7.24516 c -16.87878,11.35858 -29.98001,14.82297 -51.84568,13.70969 -20.21721,-1.02936 -33.94984,-6.3187 -50.743109,-19.54454 l -8.13553,-6.40728 v -36.69876 -36.69877 h 20.149195 20.149194 l 10.76582,-11.0166 c 5.9212,-6.05913 15.00157,-13.52464 20.1786,-16.59003 l 9.41279,-5.57344 27.46828,27.04451 c 62.09686,61.13883 67.55358,65.22999 102.29012,76.69168 11.41261,3.76571 20.69373,8.35463 24.40659,12.06748 10.01416,10.01416 7.0873,24.53775 -6.83582,33.92054 -7.22682,4.87015 -10.04055,5.39452 -18.63047,3.47201 z"
   id="path36"
   inkscape:connector-curvature="0" /><path
   style="fill:#c87137;fill-opacity:1;stroke-width:2.1694746"
   d="m 273.78769,295.7994 c -14.4976,-3.88054 -52.50082,-21.71957 -65.87973,-30.9245 -5.3619,-3.68908 -10.67506,-6.70742 -11.80703,-6.70742 -1.13196,0 -7.77041,3.43976 -14.75209,7.64391 -17.02222,10.25024 -26.68968,12.5239 -48.577,11.42465 -20.11331,-1.01015 -35.595007,-6.95016 -50.817036,-19.49744 l -7.758773,-6.39544 v -36.72312 -36.72312 h 20.149195 20.149194 l 10.76582,-11.0166 c 5.9212,-6.05913 14.90559,-13.4684 19.96532,-16.46504 l 9.1995,-5.44844 38.52894,36.95738 c 48.75125,46.76273 59.05007,54.7345 80.24905,62.11653 26.70611,9.29974 33.16037,12.40035 37.62334,18.07408 8.43078,10.718 3.24415,26.64993 -11.08883,34.0618 -7.41947,3.83676 -10.36653,3.79392 -25.94987,-0.37723 z"
   id="path38"
   inkscape:connector-curvature="0" /><path
   style="fill:#c87137;fill-opacity:1;stroke-width:2.1694746"
   d="m 273.78769,295.7994 c -14.73276,-3.94348 -52.57641,-21.77157 -66.39307,-31.27768 l -10.26225,-7.06062 -17.53631,9.57345 -17.53631,9.57346 h -23.86422 c -21.58024,0 -25.00621,-0.56356 -35.79633,-5.88836 -6.56266,-3.2386 -15.593098,-8.92319 -20.067639,-12.63242 l -8.13553,-6.74407 v -36.72312 -36.72312 l 20.06764,-0.0557 20.067639,-0.0557 10.74973,-10.96083 c 5.91235,-6.02846 14.96115,-13.4289 20.10846,-16.44542 l 9.35873,-5.48458 35.99092,34.39929 c 54.92132,52.49253 62.49032,58.13733 89.75697,66.93883 25.17582,8.1266 34.71159,15.6817 34.71159,27.50166 0,9.58469 -4.63252,17.03674 -13.35793,21.48812 -9.46891,4.83067 -11.79029,4.87873 -27.86209,0.57684 z"
   id="path40"
   inkscape:connector-curvature="0" /><path
   style="fill:#c87137;fill-opacity:1;stroke-width:2.1694746"
   d="m 268.36401,294.13412 c -20.13657,-6.70839 -33.0032,-12.70074 -54.37391,-25.32346 l -17.7387,-10.47745 -18.81161,9.67977 c -17.82411,9.17163 -19.7569,9.67977 -36.81867,9.67977 -22.51254,0 -35.24927,-3.77329 -52.714116,-15.61669 l -13.710973,-9.2978 v -37.44067 -37.44067 h 19.105671 19.105668 l 10.72461,-10.01201 c 11.33381,-10.58074 27.65415,-22.55867 30.64076,-22.48807 0.97822,0.0231 19.03967,16.48605 40.13655,36.58427 44.59506,42.48405 60.01216,54.6474 77.18169,60.8926 6.85264,2.49256 16.85253,6.14922 22.22198,8.1259 19.27333,7.0952 26.23186,20.30427 18.5361,35.18623 -3.44438,6.6607 -15.12629,13.25843 -23.20292,13.10459 -2.80269,-0.0534 -11.92966,-2.37373 -20.28213,-5.15631 z"
   id="path42"
   inkscape:connector-curvature="0" /><path
   style="fill:#d38d5f;fill-opacity:1;stroke-width:2.1694746"
   d="m 232.06627,216.31567 c -21.31499,-18.22101 -73.64471,-68.74846 -73.64471,-71.10835 0,-4.2499 19.50255,-6.23403 75.38924,-7.66989 l 59.11819,-1.51888 v 24.77452 24.77453 l -22.35454,22.27846 -22.35454,22.27846 z"
   id="path44"
   inkscape:connector-curvature="0" /><path
   style="fill:#d38d5f;fill-opacity:1;stroke-width:2.1694746"
   d="m 231.96696,216.61274 c -20.86277,-17.95431 -73.5454,-69.12189 -73.5454,-71.43039 0,-4.35887 20.26769,-6.44941 75.38924,-7.7761 l 59.11819,-1.42289 v 24.79212 24.79212 l -22.48252,22.406 -22.48251,22.406 z"
   id="path46"
   inkscape:connector-curvature="0" /><path
   style="fill:#d38d5f;fill-opacity:1;stroke-width:2.1694746"
   d="m 227.84475,213.42258 c -22.80544,-20.37911 -69.42319,-66.35965 -69.42319,-68.47426 0,-4.20007 21.43709,-6.36 75.38924,-7.59596 l 59.11819,-1.35432 v 24.78478 24.78478 l -22.27416,22.19835 c -12.25079,12.2091 -22.74562,22.18415 -23.32185,22.16679 -0.57624,-0.0174 -9.34594,-7.44694 -19.48823,-16.51016 z"
   id="path49"
   inkscape:connector-curvature="0" /><path
   style="fill:#d38d5f;fill-opacity:1;stroke-width:2.1694746"
   d="m 228.9231,214.54399 c -20.92888,-18.6018 -70.50154,-67.46093 -70.50154,-69.48678 0,-4.63915 18.8232,-6.60882 74.30451,-7.77525 l 60.20292,-1.2657 v 24.77567 24.77567 l -22.27416,22.19835 c -12.25079,12.2091 -22.7485,22.19836 -23.32824,22.19836 -0.57975,0 -8.86132,-6.93915 -18.40349,-15.42032 z"
   id="path51"
   inkscape:connector-curvature="0" /><path
   style="fill:#d38d5f;fill-opacity:1;stroke-width:2.1694746"
   d="m 174.8972,331.80597 c -16.29781,-2.73005 -36.3423,-13.69503 -49.34314,-26.99228 l -11.60673,-11.87137 -20.067637,-0.0316 -20.06764,-0.0316 0.03322,-15.72869 c 0.04412,-20.88795 1.710821,-23.32571 11.121304,-16.26631 28.837093,21.63255 61.935343,24.5694 92.301613,8.19004 18.21323,-9.82409 20.28697,-10.20426 28.02081,-5.13685 l 5.49476,3.60031 -16.90823,17.00799 -16.90824,17.00799 16.16417,16.27277 16.16416,16.27277 -11.87781,-0.25517 c -6.5328,-0.14035 -16.66707,-1.05743 -22.52061,-2.03795 z"
   id="path53"
   inkscape:connector-curvature="0" /><path
   style="fill:#d38d5f;fill-opacity:1;stroke-width:2.1694746"
   d="m 173.60788,331.71711 c -15.6877,-3.06371 -35.57574,-14.14012 -48.38065,-26.94504 l -11.89301,-11.893 H 93.573138 73.812053 v -17.22776 c 0,-9.47527 0.968059,-17.82606 2.151242,-18.5573 1.183183,-0.73125 6.704859,1.80343 12.27039,5.63261 28.674155,19.72834 58.897845,21.47691 90.361655,5.22783 16.77631,-8.66391 19.07411,-9.00971 26.69366,-4.01719 l 5.49476,3.60031 -16.90823,17.00799 -16.90824,17.00799 16.16417,16.27277 16.16416,16.27277 -12.96255,-0.2377 c -7.1294,-0.13074 -17.35574,-1.09566 -22.72519,-2.14428 z"
   id="path55"
   inkscape:connector-curvature="0" /><path
   style="fill:#d38d5f;fill-opacity:1;stroke-width:2.1694746"
   d="m 171.94188,331.7984 c -13.86463,-2.73317 -34.66792,-14.71556 -47.79567,-27.52959 L 112.47762,292.87907 H 93.14484 73.812053 v -17.22776 c 0,-9.47527 0.920812,-17.79686 2.04625,-18.49241 1.125437,-0.69556 7.31175,2.10364 13.747363,6.22046 17.760674,11.36136 30.880264,14.89673 51.928874,13.99339 15.38062,-0.66009 20.42836,-1.94379 35.01036,-8.90355 19.14418,-9.13721 22.18492,-9.61421 29.34001,-4.60258 l 5.03931,3.52966 -16.97847,17.07864 -16.97846,17.07863 16.16417,16.27277 16.16416,16.27277 -14.04729,-0.2377 c -7.726,-0.13074 -18.21391,-1.05908 -23.30645,-2.06299 z"
   id="path57"
   inkscape:connector-curvature="0" /><path
   style="fill:#d38d5f;fill-opacity:1;stroke-width:2.1694746"
   d="m 170.6091,331.68597 c -13.13741,-3.08415 -32.47997,-14.34279 -46.61114,-27.13076 L 111.09541,292.87907 H 92.453732 73.812053 v -17.22776 c 0,-9.47527 0.875732,-17.76899 1.946071,-18.4305 1.07034,-0.66151 8.497396,2.62564 16.504571,7.30476 27.909655,16.30946 54.659325,17.44457 84.641985,3.59173 19.02678,-8.79092 21.89708,-9.21192 28.98023,-4.25068 l 5.03931,3.52966 -16.97847,17.07864 -16.97846,17.07863 16.16417,16.27277 16.16416,16.27277 -15.13203,-0.21793 c -8.32261,-0.11986 -18.92213,-1.10769 -23.55449,-2.19519 z"
   id="path59"
   inkscape:connector-curvature="0" /><path
   style="fill:#d38d5f;fill-opacity:1;stroke-width:2.1694746"
   d="m 170.6091,331.68597 c -13.26859,-3.11494 -33.69032,-15.00125 -47.10511,-27.41716 L 111.19793,292.87907 H 92.50499 73.812053 v -17.22776 c 0,-9.47527 0.986928,-17.83772 2.193173,-18.58322 1.206245,-0.7455 7.896373,2.10906 14.866952,6.34346 27.318402,16.59506 54.419272,17.98892 85.752612,4.41046 19.62801,-8.5059 22.25615,-8.86117 29.26012,-3.95539 l 5.03931,3.52966 -16.97847,17.07864 -16.97846,17.07863 16.16417,16.27277 16.16416,16.27277 -15.13203,-0.21793 c -8.32261,-0.11986 -18.92213,-1.10769 -23.55449,-2.19519 z"
   id="path61"
   inkscape:connector-curvature="0" /><path
   style="fill:#d38d5f;fill-opacity:1;stroke-width:2.1694746"
   d="m 165.9864,330.19671 c -15.47993,-5.35284 -30.78403,-14.7914 -43.57079,-26.87161 l -11.057,-10.44603 H 92.585335 73.812053 v -17.22776 c 0,-9.47527 0.83232,-17.74216 1.8496,-18.37088 1.01728,-0.62871 9.559586,2.7535 18.982903,7.51602 30.197224,15.26161 51.291844,15.66105 84.776754,1.60531 15.32933,-6.43469 21.20449,-6.81414 28.83626,-1.86243 2.5694,1.6671 0.13525,5.22403 -12.47448,18.22849 -8.61673,8.88648 -15.66678,17.16781 -15.66678,18.40296 0,1.23516 1.23266,3.5358 2.73925,5.11254 1.5066,1.57675 7.99392,8.48032 14.41629,15.34129 l 11.67702,12.47448 -16.04339,-0.0708 c -9.41204,-0.0415 -20.53872,-1.62527 -26.91908,-3.83155 z"
   id="path63"
   inkscape:connector-curvature="0" /></svg>