<?xml version="1.0" encoding="iso-8859-1"?>
<!-- Generator: Adobe Illustrator 19.0.0, SVG Export Plug-In . SVG Version: 6.00 Build 0)  -->
<svg version="1.1" id="Capa_1" xmlns="http://www.w3.org/2000/svg" xmlns:xlink="http://www.w3.org/1999/xlink" x="0px" y="0px"
	 viewBox="0 0 512 512" style="enable-background:new 0 0 512 512;" xml:space="preserve">
<path style="fill:#1CB9FD;" d="M429.5,267.25v75c24.853,0,45-20.147,45-45L429.5,267.25z"/>
<path style="fill:#8FDBFD;" d="M444.5,297.25v-30l-70,30v45l32.5,15l22.5-15C437.784,342.25,444.5,322.103,444.5,297.25z"/>
<polygon style="fill:#C57C68;" points="474.5,342.25 454.5,357.25 474.5,372.25 504.5,372.25 504.5,342.25 "/>
<rect x="374.5" y="342.25" style="fill:#E18F75;" width="100" height="30"/>
<polygon style="fill:#186DD7;" points="67.5,267.25 97.5,357.25 137.5,342.25 137.5,297.25 "/>
<path style="fill:#1A93EA;" d="M37.5,297.25c0,24.853,20.147,45,45,45l15,15v-80L37.5,297.25z"/>
<polygon style="fill:#C57C68;" points="97.5,342.25 77.5,357.25 97.5,372.25 137.5,372.25 137.5,342.25 "/>
<g>
	<rect x="7.5" y="342.25" style="fill:#E18F75;" width="90" height="30"/>
	<path style="fill:#E18F75;" d="M7.5,467.25c-4.142,0-7.5-3.357-7.5-7.5v-275c0-4.143,3.358-7.5,7.5-7.5s7.5,3.357,7.5,7.5v275
		C15,463.893,11.642,467.25,7.5,467.25z"/>
</g>
<path style="fill:#8FDBFD;" d="M334.5,327.25c-4.142,0-7.5,3.358-7.5,7.5v117.5h-21c-4.142,0-7.5,3.358-7.5,7.5s3.358,7.5,7.5,7.5
	h28.5c4.142,0,7.5-3.358,7.5-7.5v-117.5h62.5v-15H334.5z"/>
<path style="fill:#186DD7;" d="M206,452.25h-21v-117.5c0-4.142-3.358-7.5-7.5-7.5h-70v15H170v117.5c0,4.142,3.358,7.5,7.5,7.5H206
	c4.142,0,7.5-3.358,7.5-7.5S210.142,452.25,206,452.25z"/>
<polygon style="fill:#743225;" points="354.5,267.25 324.5,282.25 354.5,297.25 384.5,297.25 404.5,267.25 "/>
<polygon style="fill:#84473C;" points="107.5,267.25 127.5,297.25 354.5,297.25 354.5,267.25 "/>
<g>
	<path style="fill:#743225;" d="M369.5,267.25v192.5c0,4.143,3.357,7.5,7.5,7.5s7.5-3.357,7.5-7.5v-192.5H369.5z"/>
	<path style="fill:#743225;" d="M127.5,267.25v192.5c0,4.143,3.358,7.5,7.5,7.5s7.5-3.357,7.5-7.5v-192.5H127.5z"/>
</g>
<rect x="120" y="259.75" style="fill:#E18F75;" width="272" height="15"/>
<path style="fill:#FDE855;" d="M107.5,177.25h-30l20,120h30v-100C127.5,186.204,118.546,177.25,107.5,177.25z"/>
<path style="fill:#E18F75;" d="M504.5,467.25c-4.143,0-7.5-3.357-7.5-7.5v-275c0-4.143,3.357-7.5,7.5-7.5s7.5,3.357,7.5,7.5v275
	C512,463.893,508.643,467.25,504.5,467.25z"/>
<path style="fill:#8DC051;" d="M454.5,177.25h-30l20,120h30v-100C474.5,186.204,465.546,177.25,454.5,177.25z"/>
<path style="fill:#C3D251;" d="M424.5,177.25h-20c-11.046,0-20,8.954-20,20v100h60v-100C444.5,186.204,435.546,177.25,424.5,177.25z
	"/>
<path style="fill:#FDA181;" d="M82.5,57.25v90c24.853,0,45-20.147,45-45S107.353,57.25,82.5,57.25z"/>
<path style="fill:#FDC0AB;" d="M97.5,102.25c0-24.853-6.716-45-15-45c-24.853,0-45,20.147-45,45s20.147,45,45,45
	C90.784,147.25,97.5,127.103,97.5,102.25z"/>
<path style="fill:#FDF3A9;" d="M97.5,197.25c0-11.046-8.954-20-20-20h-20c-11.046,0-20,8.954-20,20v100h60V197.25z"/>
<path style="fill:#401F18;" d="M429.625,44.75c-4.143,0-7.5,3.358-7.5,7.5v20h15v-20C437.125,48.108,433.768,44.75,429.625,44.75z"
	/>
<g>
	<path style="fill:#632B21;" d="M400.859,52.391c-3.588,2.071-4.816,6.658-2.745,10.245l10,17.321l12.99-7.5l-10-17.321
		C409.033,51.549,404.446,50.32,400.859,52.391z"/>
	<path style="fill:#632B21;" d="M379.766,73.391c-2.071,3.588-0.842,8.174,2.745,10.245l17.32,10l7.5-12.99l-17.32-10
		C386.424,68.575,381.838,69.804,379.766,73.391z"/>
	<path style="fill:#632B21;" d="M372,102.125c0,4.143,3.358,7.5,7.5,7.5h20v-15h-20C375.358,94.625,372,97.982,372,102.125z"/>
</g>
<g>
	<path style="fill:#401F18;" d="M487,102.375c0-4.143-3.358-7.5-7.5-7.5h-20v15h20C483.642,109.875,487,106.518,487,102.375z"/>
	<path style="fill:#401F18;" d="M479.359,73.609c-2.071-3.588-6.658-4.816-10.245-2.745l-17.321,10l7.5,12.99l17.321-10
		C480.201,81.783,481.43,77.196,479.359,73.609z"/>
	<path style="fill:#401F18;" d="M458.359,52.516c-3.588-2.071-8.174-0.842-10.245,2.745l-10,17.321l12.99,7.5l10-17.321
		C463.175,59.174,461.946,54.588,458.359,52.516z"/>
</g>
<path style="fill:#84473C;" d="M429.625,57.25v90c24.853,0,45-20.147,45-45S454.478,57.25,429.625,57.25z"/>
<path style="fill:#8D584E;" d="M444.625,102.25c0-24.853-6.716-45-15-45c-24.853,0-45,20.147-45,45s20.147,45,45,45
	C437.91,147.25,444.625,127.103,444.625,102.25z"/>
<polygon style="fill:#C3D251;" points="225.533,237.25 225.533,206.25 200.533,186.25 175.533,206.25 175.533,237.25 "/>
<rect x="175.53" y="162.25" style="fill:#629D3C;" width="50" height="44"/>
<polygon style="fill:#FD8358;" points="336.467,237.25 336.467,206.25 311.467,186.25 286.467,206.25 286.467,237.25 "/>
<rect x="286.47" y="162.25" style="fill:#F06449;" width="50" height="44"/>
<path style="fill:#FDC0AB;" d="M175.533,244.75H97.5c-20.678,0-37.5-16.822-37.5-37.5c0-4.143,3.358-7.5,7.5-7.5s7.5,3.357,7.5,7.5
	c0,12.406,10.093,22.5,22.5,22.5h78.033c4.142,0,7.5,3.357,7.5,7.5S179.675,244.75,175.533,244.75z"/>
<path style="fill:#8D584E;" d="M414.5,244.75h-78.033c-4.143,0-7.5-3.357-7.5-7.5s3.357-7.5,7.5-7.5H414.5
	c12.406,0,22.5-10.094,22.5-22.5c0-4.143,3.357-7.5,7.5-7.5s7.5,3.357,7.5,7.5C452,227.928,435.178,244.75,414.5,244.75z"/>
<g>
</g>
<g>
</g>
<g>
</g>
<g>
</g>
<g>
</g>
<g>
</g>
<g>
</g>
<g>
</g>
<g>
</g>
<g>
</g>
<g>
</g>
<g>
</g>
<g>
</g>
<g>
</g>
<g>
</g>
</svg>
