<svg height="512pt" viewBox="0 -27 512.00029 512" width="512pt" xmlns="http://www.w3.org/2000/svg"><path d="m147.582031 345.699219c-2.671875 0-5.269531-1.386719-6.703125-3.867188-2.128906-3.695312-.863281-8.417969 2.832032-10.550781l55.050781-31.761719c24.625-14.21875 33.089843-45.816406 18.875-70.441406-2.132813-3.695313-.867188-8.421875 2.828125-10.554687 3.695312-2.132813 8.421875-.867188 10.554687 2.828124 18.476563 32.003907 7.472657 73.074219-24.53125 91.550782l-55.054687 31.761718c-1.214844.703126-2.542969 1.035157-3.851563 1.035157zm0 0" fill="#b2b2b2"/><path d="m451.261719 1.722656c6.136719-3.546875 13.988281-1.441406 17.53125 4.695313l6.417969 11.117187-7.507813 11.640625-14.722656 1.191407-6.417969-11.113282c-3.542969-6.140625-1.441406-13.988281 4.699219-17.53125zm0 0" fill="#ccc"/><path d="m506.871094 62.089844-58.691406 33.882812h-14.988282l-18.242187-30.183594 6.023437-16.9375 58.679688-33.882812c4.914062-2.84375 11.199218-1.152344 14.03125 3.75l16.9375 29.351562c2.839844 4.902344 1.152344 11.1875-3.75 14.019532zm0 0" fill="#3a3a3a"/><path d="m506.25 40.5-67.546875 39.050781-1.070313.621094c-1.21875.699219-2.546874 1.039063-3.855468 1.039063-2.667969 0-5.261719-1.390626-6.695313-3.875-2.132812-3.6875-.863281-8.414063 2.824219-10.546876l1.070312-.617187 67.546876-39.054687zm0 0" fill="#1c1c1c"/><path d="m276.566406 195.054688-89.804687 51.851562-25.195313-13.582031-2.015625-33.546875 89.808594-51.847656 24.152344 20.492187zm0 0" fill="#3a3a3a"/><path d="m173.421875 231.515625c-2.671875 0-5.269531-1.386719-6.699219-3.867187-2.132812-3.695313-.867187-8.417969 2.828125-10.550782l89.363281-51.59375c3.691407-2.136718 8.417969-.871094 10.550782 2.828125 2.136718 3.695313.871094 8.417969-2.828125 10.550781l-89.359375 51.59375c-1.21875.703126-2.546875 1.039063-3.855469 1.039063zm0 0" fill="#1c1c1c"/><path d="m12.839844 284.484375 146.710937-84.707031 27.210938 47.128906-62.289063 193.675781c-1.949218 6.0625-6.085937 11.183594-11.601562 14.371094l-1.210938.695313c-12.277344 7.089843-27.976562 2.882812-35.0625-9.394532l-73.15625-126.707031c-7.085937-12.277344-2.878906-27.976563 9.398438-35.0625zm0 0" fill="#774320"/><path d="m447.921875 153.023438-121.820313 70.34375c-13.742187 7.929687-31.328124 3.222656-39.269531-10.53125l-37.476562-64.910157 171.617187-99.070312 37.480469 64.898437c7.929687 13.753906 3.222656 31.339844-10.53125 39.269532zm0 0" fill="#916643"/><g fill="#594235"><path d="m344.359375 212.828125-13.382813 7.722656-17.710937-30.675781c-2.140625-3.699219-.875-8.417969 2.824219-10.558594 3.699218-2.132812 8.417968-.867187 10.558594 2.832032zm0 0"/><path d="m377.253906 193.832031-13.382812 7.726563-17.710938-30.679688c-2.132812-3.699218-.863281-8.417968 2.835938-10.550781 3.6875-2.140625 8.414062-.875 10.546875 2.824219zm0 0"/><path d="m410.15625 174.832031-13.382812 7.726563-17.707032-30.679688c-2.132812-3.6875-.878906-8.414062 2.820313-10.546875 3.699219-2.132812 8.429687-.867187 10.558593 2.824219zm0 0"/><path d="m443.058594 155.835938-13.390625 7.726562-17.710938-30.667969c-2.128906-3.695312-.863281-8.425781 2.835938-10.558593 3.695312-2.132813 8.414062-.863282 10.546875 2.832031zm0 0"/></g><path d="m171.3125 220.144531 15.453125 26.765625-62.285156 193.667969c-1.957031 6.070313-6.089844 11.191406-11.605469 14.375l-1.210938.699219c-12.277343 7.089844-27.972656 2.875-35.0625-9.402344l-15.453124-26.765625c7.089843 12.277344 22.785156 16.492187 35.0625 9.402344l1.210937-.699219c5.515625-3.183594 9.648437-8.304688 11.605469-14.371094zm0 0" fill="#513321"/><path d="m448.148438 95.914062 10.304687 17.84375c7.929687 13.753907 3.222656 31.339844-10.53125 39.265626l-121.820313 70.34375c-13.738281 7.933593-31.328124 3.21875-39.265624-10.527344l-10.300782-17.84375c7.9375 13.75 25.527344 18.460937 39.265625 10.53125l121.820313-70.34375c13.753906-7.929688 18.457031-25.515625 10.527344-39.269532zm0 0" fill="#845939"/><path d="m320.667969 202.710938 13.378906-7.726563 10.300781 17.84375-13.378906 7.722656zm0 0" fill="#443028"/><path d="m353.558594 183.714844 13.382812-7.726563 10.300782 17.84375-13.382813 7.722657zm0 0" fill="#443028"/><path d="m386.460938 164.71875 13.382812-7.726562 10.300781 17.84375-13.378906 7.726562zm0 0" fill="#443028"/><path d="m443.058594 155.835938-13.390625 7.726562-10.304688-17.839844 13.382813-7.726562zm0 0" fill="#443028"/></svg>