<?xml version="1.0" encoding="UTF-8" standalone="no"?>
<!-- Generator: Adobe Illustrator 19.0.0, SVG Export Plug-In . SVG Version: 6.00 Build 0)  -->

<svg
   xmlns:dc="http://purl.org/dc/elements/1.1/"
   xmlns:cc="http://creativecommons.org/ns#"
   xmlns:rdf="http://www.w3.org/1999/02/22-rdf-syntax-ns#"
   xmlns:svg="http://www.w3.org/2000/svg"
   xmlns="http://www.w3.org/2000/svg"
   xmlns:sodipodi="http://sodipodi.sourceforge.net/DTD/sodipodi-0.dtd"
   xmlns:inkscape="http://www.inkscape.org/namespaces/inkscape"
   version="1.1"
   id="Layer_1"
   x="0px"
   y="0px"
   viewBox="0 0 512 512"
   style="enable-background:new 0 0 512 512;"
   xml:space="preserve"
   sodipodi:docname="player_hand.svg"
   inkscape:version="0.92.3 (2405546, 2018-03-11)"
   inkscape:export-filename="/home/catalyst13/Documents/Kickstart/Homework/django_site/gun_on_the_mantle/static/img/player_hand.png"
   inkscape:export-xdpi="145.10001"
   inkscape:export-ydpi="145.10001"><metadata
   id="metadata61"><rdf:RDF><cc:Work
       rdf:about=""><dc:format>image/svg+xml</dc:format><dc:type
         rdf:resource="http://purl.org/dc/dcmitype/StillImage" /></cc:Work></rdf:RDF></metadata><defs
   id="defs59" /><sodipodi:namedview
   pagecolor="#ffffff"
   bordercolor="#666666"
   borderopacity="1"
   objecttolerance="10"
   gridtolerance="10"
   guidetolerance="10"
   inkscape:pageopacity="0"
   inkscape:pageshadow="2"
   inkscape:window-width="1638"
   inkscape:window-height="990"
   id="namedview57"
   showgrid="false"
   inkscape:zoom="0.4609375"
   inkscape:cx="43.389831"
   inkscape:cy="169.22034"
   inkscape:window-x="139"
   inkscape:window-y="301"
   inkscape:window-maximized="0"
   inkscape:current-layer="Layer_1" />
<path
   style="fill:#FFB14D;"
   d="M360.706,100.087v43.422h-64.671l12.318-43.422c0-14.462,11.715-26.176,26.176-26.176  S360.706,85.625,360.706,100.087z"
   id="path2" />
<path
   style="fill:#FF9E24;"
   d="M308.353,100.087v43.422h-64.671L256,63.132c0-14.462,11.715-26.176,26.177-26.176  s26.177,11.715,26.177,26.176V100.087z"
   id="path4" />
<path
   style="fill:#FFB14D;"
   d="M256,63.132v80.377h-64.671l12.318-80.377V26.176C203.647,11.715,215.362,0,229.824,0  S256,11.715,256,26.176V63.132z"
   id="path6" />
<path
   style="fill:#FF9E24;"
   d="M203.647,63.132v80.377h-52.353V63.132c0-14.462,11.715-26.176,26.176-26.176  C191.932,36.955,203.647,48.67,203.647,63.132z"
   id="path8" />

<path
   style="fill:#FFB14D;"
   d="M167,324.318l52.045,147.648h98.547v-67.024c25.105-18.305,41.772-47.487,43.028-80.624L167,324.318  L167,324.318z"
   id="path12" />
<path
   style="fill:#FF9E24;"
   d="M203.647,324.318c47.682,0,86.267,38.585,86.267,86.267v61.381h-95.505v-67.024  c-15.866-3.104-30.894-9.855-43.804-19.759c-12.91-9.904-23.701-22.974-31.042-38.741c-3.375-7.243-6.282-14.634-8.697-22.124  c-6.048-18.736-9.091-38.113-9.091-57.551c0-21.779,3.819-43.607,11.481-64.671c4.94-13.587,19.968-20.596,33.555-15.644  c13.575,4.94,20.584,19.956,15.644,33.543c-12.466,34.245-10.852,71.299,4.545,104.324H203.647z"
   id="path14" />
<rect
   x="163.612"
   y="447.329"
   style="fill:#4C5870;"
   width="197.094"
   height="64.671"
   id="rect16" />
<g
   id="g22">
	
	
</g>
<circle
   style="fill:#181818;"
   cx="308.353"
   cy="479.664"
   r="12.318"
   id="circle24" />
<g
   id="g26">
</g>
<g
   id="g28">
</g>
<g
   id="g30">
</g>
<g
   id="g32">
</g>
<g
   id="g34">
</g>
<g
   id="g36">
</g>
<g
   id="g38">
</g>
<g
   id="g40">
</g>
<g
   id="g42">
</g>
<g
   id="g44">
</g>
<g
   id="g46">
</g>
<g
   id="g48">
</g>
<g
   id="g50">
</g>
<g
   id="g52">
</g>
<g
   id="g54">
</g>
<path
   style="fill:#ffccaa;fill-opacity:1;stroke-width:2.16949153"
   d="m 288.64194,416.65085 c -0.68542,-27.2469 -1.26041,-30.86395 -6.63882,-41.76271 -11.13648,-22.56686 -27.62646,-37.59547 -50.14706,-45.70298 l -11.21877,-4.0388 69.91186,-0.0783 69.91187,-0.0783 -1.254,7.05085 c -4.66601,26.23569 -14.20296,45.67891 -30.30245,61.77841 l -11.72491,11.7249 v 20.46868 20.46869 h -13.89365 -13.89365 z"
   id="path81"
   inkscape:connector-curvature="0" /><path
   style="fill:#ffccaa;fill-opacity:1;stroke-width:2.16949153"
   d="m 308.50169,107.82618 c 0,-19.882229 9.94181,-32.327875 25.82409,-32.327875 16.10232,0 24.09357,9.202944 25.73371,29.635655 l 1.10405,13.75418 h -26.33092 -26.33093 z"
   id="path83"
   inkscape:connector-curvature="0" /><path
   style="fill:#ffccaa;fill-opacity:1;stroke-width:2.16949153"
   d="m 204.07723,94.481356 c -0.56472,-47.714369 0.67789,-74.134054 3.76925,-80.139489 4.4252,-8.5966226 11.47627,-12.6062738 22.16845,-12.6062738 7.82685,0 10.73257,1.2399299 16.52335,7.0508475 l 7.02642,7.0508473 1.4346,36.685477 c 0.78903,20.177011 1.4346,43.363452 1.4346,51.525425 v 14.83995 H 230.4 204.3661 Z"
   id="path85"
   inkscape:connector-curvature="0" /><path
   style="fill:#ffccaa;fill-opacity:1;stroke-width:2.16949153"
   d="m 195.22432,425.41941 -0.62093,-21.06192 -8.75451,-2.52987 c -27.65426,-7.99151 -52.57168,-29.28284 -65.02039,-55.55837 -14.97253,-31.60256 -21.186807,-70.9137 -16.39282,-103.7 3.98582,-27.25919 9.91501,-44.29651 17.69351,-50.84168 11.55852,-9.72585 30.8347,-5.96483 37.72562,7.36074 4.1347,7.99562 4.15409,14.43506 0.0783,25.98719 -8.39101,23.78265 -7.91422,58.87166 1.17113,86.18918 l 4.45445,13.39349 28.62407,0.78738 c 35.3273,0.97176 47.63328,5.12138 66.22025,22.32963 21.74383,20.13095 27.83039,38.59929 28.41913,86.2316 l 0.15418,12.47458 h -46.5655 -46.56551 z"
   id="path87"
   inkscape:connector-curvature="0" /><path
   style="fill:#ffccaa;fill-opacity:1;stroke-width:2.16949153"
   d="m 152.29831,88.407517 c 0,-32.552394 1.74277,-39.698029 11.31779,-46.404633 2.65875,-1.862264 9.10772,-3.385935 14.33103,-3.385935 7.90778,0 10.73124,1.234297 16.87321,7.376271 l 7.37627,7.376272 0.0239,24.623728 c 0.0132,13.543051 0.629,28.28475 1.3686,32.75932 l 1.34473,8.1356 h -26.31777 -26.31775 z"
   id="path89"
   inkscape:connector-curvature="0" /><path
   style="fill:#ffccaa;fill-opacity:1;stroke-width:2.16949153"
   d="m 256.4339,89.530318 c 0,-19.882448 0.95479,-31.642946 2.95825,-36.437903 8.96676,-21.460472 40.48127,-18.335527 46.86448,4.647031 1.22148,4.397881 2.22631,19.955469 2.23297,34.572418 l 0.0121,26.576276 h -26.0339 -26.0339 z"
   id="path91"
   inkscape:connector-curvature="0" /><path
   inkscape:connector-curvature="0"
   style="fill:#e4f7ff;stroke-width:0.6971252"
   d="M 370.89956,404.4884 H 147.81949 V 89.387802 h 223.08007 z m 0,0"
   id="path2-3" /><path
   inkscape:connector-curvature="0"
   style="fill:#cbedfd;stroke-width:0.6971252"
   d="M 370.89956,404.4884 H 269.8164 V 89.387802 h 101.08316 z m 0,0"
   id="path4-6" /><path
   inkscape:connector-curvature="0"
   style="fill:#e8596e;stroke-width:0.6971252"
   d="M 370.89956,268.54898 H 147.81949 V 89.387802 h 223.08007 z m 0,0"
   id="path6-7" /><path
   inkscape:connector-curvature="0"
   style="fill:#db2e44;stroke-width:0.6971252"
   d="M 370.89956,268.54898 H 269.8164 V 89.387802 h 101.08316 z m 0,0"
   id="path8-53" /><path
   inkscape:connector-curvature="0"
   style="fill:#cbedfd;stroke-width:0.6971252"
   d="m 189.647,345.23275 h 118.51128 v 20.91376 H 189.647 Z m 0,0"
   id="path12-56" /><path
   inkscape:connector-curvature="0"
   style="fill:#cbedfd;stroke-width:0.6971252"
   d="M 189.647,303.40524 H 329.07204 V 324.319 H 189.647 Z m 0,0"
   id="path14-2" /><path
   inkscape:connector-curvature="0"
   style="fill:#a9e1fa;stroke-width:0.6971252"
   d="m 269.8164,345.23275 h 38.34188 v 20.91376 H 269.8164 Z m 0,0"
   id="path20" /><path
   inkscape:connector-curvature="0"
   style="fill:#a9e1fa;stroke-width:0.6971252"
   d="m 269.8164,303.40524 h 59.25564 V 324.319 H 269.8164 Z m 0,0"
   id="path22" /><g
   transform="matrix(0.29545857,0,0,0.29545857,202.76834,117.69306)"
   id="g14"><path
     inkscape:connector-curvature="0"
     style="fill:#fde4e4"
     d="M 476.619,304.403 C 476.063,303.845 421.003,247.964 421.003,195 c 0,-107.523 -87.477,-195 -195,-195 -107.523,0 -195,87.477 -195,195 0,52.891 21.786,103.688 60,140.431 V 497 c 0,8.284 6.716,15 15,15 h 180 c 4.775,0 9.265,-2.28 12.09,-6.13 2.826,-3.85 3.648,-8.822 2.217,-13.378 -0.038,-0.122 -3.864,-12.393 -5.706,-26.168 -2.1,-15.7 -0.322,-23.815 1.322,-26.764 3.321,0.433 10.22,3.277 14.966,5.234 18.411,7.592 49.23,20.299 75.718,-6.188 17.37,-17.37 20.179,-42.588 22.657,-64.838 3.896,-34.97 7.448,-43.769 26.736,-43.769 h 30 c 6.062,0 11.522,-3.654 13.848,-9.252 2.326,-5.598 1.047,-12.049 -3.232,-16.344 z"
     id="path8-5" /><path
     inkscape:connector-curvature="0"
     style="fill:#6c5353"
     d="m 286.003,512 c 4.775,0 9.265,-2.28 12.09,-6.13 2.826,-3.85 3.648,-8.822 2.217,-13.378 -0.038,-0.122 -3.864,-12.393 -5.706,-26.168 -2.1,-15.7 -0.322,-23.815 1.322,-26.764 3.321,0.433 10.22,3.277 14.966,5.234 18.411,7.592 49.23,20.299 75.718,-6.188 17.37,-17.37 20.179,-42.588 22.657,-64.838 3.896,-34.97 7.448,-43.769 26.736,-43.769 h 30 c 6.062,0 11.522,-3.654 13.848,-9.252 2.326,-5.598 1.047,-12.051 -3.231,-16.345 -0.556,-0.558 -55.616,-56.439 -55.616,-109.403 0,-107.523 -87.477,-195 -195,-195 v 512 h 59.999 z"
     id="path10-3" /><path
     inkscape:connector-curvature="0"
     style="fill:#523522"
     d="m 335.397,184.394 c -5.181,5.18 -12.067,8.033 -19.394,8.033 -7.327,0 -14.213,-2.853 -19.394,-8.033 -5.857,-5.859 -15.355,-5.857 -21.213,0 -5.858,5.858 -5.858,15.355 0,21.213 10.846,10.846 25.268,16.82 40.606,16.82 15.338,0 29.761,-5.974 40.606,-16.82 5.858,-5.858 5.858,-15.355 0,-21.213 -5.856,-5.859 -15.354,-5.858 -21.211,0 z"
     id="path12-5" /></g><path
   style="fill:#916f6f;stroke-width:0.64099485"
   d="m 232.03046,268.30951 c -0.86336,-0.47813 -1.78054,-1.40537 -2.03818,-2.06052 -0.25765,-0.65517 -0.48872,-12.17036 -0.5135,-25.58933 l -0.045,-24.39814 -1.98823,-1.88266 c -6.61224,-6.26115 -12.58171,-18.26291 -14.72899,-29.61291 -0.9822,-5.19172 -0.39803,-19.0645 1.01865,-24.19032 1.40287,-5.07591 5.29478,-13.33522 8.49321,-18.02404 7.0981,-10.40567 19.52886,-19.30119 31.67559,-22.66721 4.65364,-1.2896 18.3368,-2.92919 18.99044,-2.27556 0.18736,0.18736 -0.42855,0.34064 -1.36867,0.34064 h -1.70935 v 75.29976 75.29976 l 9.45467,0.1959 c 5.20007,0.10773 -2.94857,0.24946 -18.1081,0.31492 -22.17451,0.0958 -27.86964,-0.0509 -29.13252,-0.75029 z"
   id="path3755"
   inkscape:connector-curvature="0" /></svg>