<?xml version="1.0" encoding="UTF-8" standalone="no"?>
<!-- Generator: Adobe Illustrator 19.0.0, SVG Export Plug-In . SVG Version: 6.00 Build 0)  -->

<svg
   xmlns:dc="http://purl.org/dc/elements/1.1/"
   xmlns:cc="http://creativecommons.org/ns#"
   xmlns:rdf="http://www.w3.org/1999/02/22-rdf-syntax-ns#"
   xmlns:svg="http://www.w3.org/2000/svg"
   xmlns="http://www.w3.org/2000/svg"
   xmlns:sodipodi="http://sodipodi.sourceforge.net/DTD/sodipodi-0.dtd"
   xmlns:inkscape="http://www.inkscape.org/namespaces/inkscape"
   version="1.1"
   id="Capa_1"
   x="0px"
   y="0px"
   viewBox="0 0 512 512"
   style="enable-background:new 0 0 512 512;"
   xml:space="preserve"
   sodipodi:docname="card-game.svg"
   inkscape:version="0.92.3 (2405546, 2018-03-11)"><metadata
   id="metadata93"><rdf:RDF><cc:Work
       rdf:about=""><dc:format>image/svg+xml</dc:format><dc:type
         rdf:resource="http://purl.org/dc/dcmitype/StillImage" /></cc:Work></rdf:RDF></metadata><defs
   id="defs91" /><sodipodi:namedview
   pagecolor="#ffffff"
   bordercolor="#666666"
   borderopacity="1"
   objecttolerance="10"
   gridtolerance="10"
   guidetolerance="10"
   inkscape:pageopacity="0"
   inkscape:pageshadow="2"
   inkscape:window-width="1066"
   inkscape:window-height="797"
   id="namedview89"
   showgrid="false"
   inkscape:zoom="0.4609375"
   inkscape:cx="256"
   inkscape:cy="256"
   inkscape:window-x="67"
   inkscape:window-y="27"
   inkscape:window-maximized="0"
   inkscape:current-layer="Capa_1" />
<path
   style="fill:#96D6EB;"
   d="M436.065,0H194.246c-27.159,0-49.255,22.096-49.255,49.255v413.49  c0,27.159,22.096,49.255,49.255,49.255h241.819c27.159,0,49.255-22.096,49.255-49.255V49.255C485.32,22.096,463.224,0,436.065,0z"
   id="path2" />
<path
   style="fill:#E6F9FF;"
   d="M315.156,0h-120.91c-27.159,0-49.255,22.096-49.255,49.255v413.49  c0,27.159,22.096,49.255,49.255,49.255h120.91V0z"
   id="path4" />
<path
   style="fill:#85532D;"
   d="M144.991,291.67v171.075c0,27.159,22.096,49.255,49.255,49.255h241.819  c27.159,0,49.255-22.096,49.255-49.255V291.67H144.991z"
   id="path6" />
<path
   style="fill:#DB874F;"
   d="M315.155,291.67H144.991v171.075c0,27.159,22.096,49.255,49.255,49.255h120.909V291.67z"
   id="path8" />
<path
   style="fill:#ACE9FA;"
   d="M374.862,0H133.043c-27.159,0-49.255,22.096-49.255,49.255v413.49  c0,27.159,22.096,49.255,49.255,49.255h241.819c27.159,0,49.255-22.096,49.255-49.255V49.255C424.116,22.096,402.021,0,374.862,0z"
   id="path10" />
<path
   style="fill:#E6F9FF;"
   d="M253.952,0h-120.91c-27.159,0-49.255,22.096-49.255,49.255v413.49  c0,27.159,22.096,49.255,49.255,49.255h120.91V0z"
   id="path12" />
<path
   style="fill:#9E6239;"
   d="M83.788,291.67v171.075c0,27.159,22.096,49.255,49.255,49.255h241.819  c27.159,0,49.255-22.096,49.255-49.255V291.67H83.788z"
   id="path14" />
<path
   style="fill:#FFB157;"
   d="M253.952,291.67H83.788v171.075c0,27.159,22.096,49.255,49.255,49.255h120.909V291.67z"
   id="path16" />
<path
   style="fill:#C7F4FF;"
   d="M317.754,0H75.935C48.776,0,26.68,22.096,26.68,49.255v413.49C26.68,489.904,48.776,512,75.935,512  h241.819c27.159,0,49.255-22.096,49.255-49.255V49.255C367.009,22.096,344.913,0,317.754,0z"
   id="path18" />
<path
   style="fill:#EDFFFF;"
   d="M196.845,0H75.935C48.776,0,26.68,22.096,26.68,49.255v413.49C26.68,489.904,48.776,512,75.935,512  h120.91V0z"
   id="path20" />
<path
   style="fill:#DB874F;"
   d="M26.68,291.67v171.075C26.68,489.904,48.776,512,75.935,512h241.819  c27.159,0,49.255-22.096,49.255-49.255V291.67H26.68z"
   id="path22" />
<path
   style="fill:#FFCC66;"
   d="M196.845,291.67H26.68v171.075C26.68,489.904,48.776,512,75.935,512h120.909V291.67H196.845z"
   id="path24" />
<path
   style="fill:#444D52;"
   d="M294.723,331.823H98.966c-8.284,0-15,6.716-15,15s6.716,15,15,15h195.757c8.284,0,15-6.716,15-15  S303.008,331.823,294.723,331.823z"
   id="path26" />
<path
   style="fill:#617075;"
   d="M196.845,331.823H98.966c-8.284,0-15,6.716-15,15s6.716,15,15,15h97.879V331.823z"
   id="path28" />
<path
   style="fill:#444D52;"
   d="M294.723,388.718H98.966c-8.284,0-15,6.716-15,15s6.716,15,15,15h195.757c8.284,0,15-6.716,15-15  S303.008,388.718,294.723,388.718z"
   id="path30" />
<path
   style="fill:#617075;"
   d="M196.845,388.718H98.966c-8.284,0-15,6.716-15,15s6.716,15,15,15h97.879V388.718z"
   id="path32" />
<path
   style="fill:#444D52;"
   d="M203.43,445.614H98.966c-8.284,0-15,6.716-15,15s6.716,15,15,15H203.43c8.284,0,15-6.716,15-15  S211.714,445.614,203.43,445.614z"
   id="path34" />
<path
   style="fill:#617075;"
   d="M196.845,445.614H98.966c-8.284,0-15,6.716-15,15s6.716,15,15,15h97.879V445.614z"
   id="path36" />










<g
   id="g58">
</g>
<g
   id="g60">
</g>
<g
   id="g62">
</g>
<g
   id="g64">
</g>
<g
   id="g66">
</g>
<g
   id="g68">
</g>
<g
   id="g70">
</g>
<g
   id="g72">
</g>
<g
   id="g74">
</g>
<g
   id="g76">
</g>
<g
   id="g78">
</g>
<g
   id="g80">
</g>
<g
   id="g82">
</g>
<g
   id="g84">
</g>
<g
   id="g86">
</g>
<g
   transform="matrix(0.42372952,0,0,0.42372952,86.779565,67.254353)"
   id="g6"
   style="fill:#ffcc66;fill-opacity:1"><g
     id="g4"
     style="fill:#ffcc66;fill-opacity:1"><path
       inkscape:connector-curvature="0"
       d="m 504.502,75.496 c -9.997,-9.998 -26.205,-9.998 -36.204,0 L 161.594,382.203 43.702,264.311 c -9.997,-9.998 -26.205,-9.997 -36.204,0 -9.998,9.997 -9.998,26.205 0,36.203 l 135.994,135.992 c 9.994,9.997 26.214,9.99 36.204,0 L 504.502,111.7 c 9.998,-9.997 9.997,-26.206 0,-36.204 z"
       id="path2-3"
       style="fill:#ffcc66;fill-opacity:1" /></g></g></svg>