<?xml version="1.0" encoding="iso-8859-1"?>
<!-- Generator: Adobe Illustrator 19.0.0, SVG Export Plug-In . SVG Version: 6.00 Build 0)  -->
<svg version="1.1" id="Capa_1" xmlns="http://www.w3.org/2000/svg" xmlns:xlink="http://www.w3.org/1999/xlink" x="0px" y="0px"
	 viewBox="0 0 512 512" style="enable-background:new 0 0 512 512;" xml:space="preserve">
<g transform="matrix(1.25 0 0 -1.25 0 45)">
	<path style="fill:#CCD6DD;" d="M409.6-365.183v45.511c0,37.706-30.561,68.267-68.267,68.267H159.289
		c-37.695,0-68.267-30.561-68.267-68.267v-45.511H409.6z"/>
	<path style="fill:#D5AB88;" d="M204.8-262.783l45.511-45.511l45.511,45.511v56.889H204.8V-262.783z"/>
	<path style="fill:#CC9B7A;" d="M204.8-228.65c13.836-15.633,26.795-19.558,45.466-19.558c18.648,0,31.71,3.937,45.556,19.558
		v45.511H204.8V-228.65z"/>
	<g>
		<path style="fill:#D5AB88;" d="M175.721-114.142c0-16.475-8.351-29.832-18.648-29.832c-10.297,0-18.648,13.357-18.648,29.832
			s8.351,29.844,18.648,29.844C167.37-84.298,175.721-97.667,175.721-114.142"/>
		<path style="fill:#D5AB88;" d="M362.189-114.142c0-16.475-8.34-29.832-18.648-29.832c-10.297,0-18.637,13.357-18.637,29.832
			s8.34,29.844,18.637,29.844C353.849-84.298,362.189-97.667,362.189-114.142"/>
		<path style="fill:#D5AB88;" d="M153.343-125.789c0,63.59,43.418,115.155,96.973,115.155s96.961-51.564,96.961-115.155
			s-43.406-115.155-96.961-115.155S153.343-189.38,153.343-125.789"/>
	</g>
	<path style="fill:#C1694F;" d="M250.311-203.639c-31.334,0-40.96,8.021-42.565,9.649c-2.913,2.913-2.913,7.635,0,10.547
		c2.822,2.822,7.339,2.89,10.263,0.262c0.591-0.421,8.204-5.541,32.301-5.541c25.031,0,32.268,5.518,32.335,5.575
		c2.913,2.901,7.475,2.765,10.388-0.171c2.913-2.913,2.753-7.759-0.159-10.673C291.271-195.618,281.645-203.639,250.311-203.639"/>
	<path style="fill:#963B22;" d="M250.311,27.583c64.262,0,104.425-47.423,104.425-86.938s-8.033-55.33-16.065-39.515
		c-8.033,15.803-16.065,31.608-16.065,31.608s-48.197,0-64.262,15.815c0,0,24.098-47.423-24.098,0c0,0,8.033-31.619-40.164,7.896
		c0,0-24.098-15.803-32.131-55.319c-2.23-10.968-16.065,0-16.065,39.515C145.886-19.84,178.017,27.583,250.311,27.583"/>
	<g>
		<path style="fill:#662113;" d="M204.8-126.25L204.8-126.25c-6.258,0-11.378,5.12-11.378,11.378v11.378
			c0,6.258,5.12,11.378,11.378,11.378s11.378-5.12,11.378-11.378v-11.378C216.178-121.13,211.058-126.25,204.8-126.25"/>
		<path style="fill:#662113;" d="M295.822-126.25L295.822-126.25c-6.258,0-11.378,5.12-11.378,11.378v11.378
			c0,6.258,5.12,11.378,11.378,11.378s11.378-5.12,11.378-11.378v-11.378C307.2-121.13,302.08-126.25,295.822-126.25"/>
	</g>
	<path style="fill:#C1694F;" d="M258.844-157.539h-17.067c-4.699,0-8.533,3.834-8.533,8.533s3.834,8.533,8.533,8.533h17.067
		c4.699,0,8.533-3.834,8.533-8.533S263.544-157.539,258.844-157.539"/>
	<path style="fill:#E1E8ED;" d="M22.756-365.183c0,0-22.756,0-22.756,22.756c0,2.036,1.331,10.195,11.378,22.756l45.511,56.889
		v56.889c0,0-22.756,0-22.756,22.756s22.756,22.756,22.756,22.756h56.889c0,0,22.756,0,22.756-22.756s-22.756-22.756-22.756-22.756
		v-56.889l45.511-56.889c13.119-16.396,11.378-21.231,11.378-22.756c0-22.756-22.756-22.756-22.756-22.756H22.756z"/>
	<g>
		<path style="fill:#9266CC;" d="M6.044-344.916l11.025-14.927h136.886l11.378,20.264l-35.203,45.864H34.488L6.044-343.14"/>
		<path style="fill:#9266CC;" d="M91.022-80.739c0-6.28-5.086-11.378-11.378-11.378c-6.28,0-11.378,5.097-11.378,11.378
			s5.097,11.378,11.378,11.378C85.937-69.361,91.022-74.458,91.022-80.739"/>
		<path style="fill:#9266CC;" d="M113.778-137.627c0-6.28-5.086-11.378-11.378-11.378s-11.378,5.097-11.378,11.378
			c0,6.28,5.086,11.378,11.378,11.378S113.778-131.347,113.778-137.627"/>
		<path style="fill:#9266CC;" d="M79.644-120.561c0-9.432-7.635-17.067-17.067-17.067s-17.067,7.635-17.067,17.067
			s7.635,17.067,17.067,17.067S79.644-111.129,79.644-120.561"/>
	</g>
	<path style="fill:#A8BCCC;" d="M113.778-160.383H56.889c0,0-22.756,0-22.756-22.756s22.756-22.756,22.756-22.756v-56.889
		l-45.511-56.889C1.331-332.233,0-340.391,0-342.427c0-22.756,22.756-22.756,22.756-22.756h125.156c0,0,22.756,0,22.756,22.756
		c0,1.524,1.741,6.36-11.378,22.756l-45.511,56.889v56.889c0,0,22.756,0,22.756,22.756S113.778-160.383,113.778-160.383
		 M113.687-171.761c5.245-0.148,11.469-2.241,11.469-11.378c0-9.171-6.269-11.241-11.378-11.378H102.4v-11.378v-56.889v-3.994
		l2.491-3.117l45.511-56.889c8.328-10.411,8.954-14.211,8.954-14.245l-0.069-0.933v-0.467c0-9.171-6.27-11.241-11.378-11.378H22.892
		c-5.256,0.136-11.514,2.207-11.526,10.991c0,0.057,0.717,5.803,8.897,16.031l45.511,56.889l2.491,3.117v3.994v56.889l-0.159,11.105
		l-11.082,0.273c-5.256,0.136-11.514,2.207-11.514,11.378s6.258,11.241,11.378,11.378L113.687-171.761"/>
	<path style="fill:#66757F;" d="M216.845-365.183l-12.049,104.891c0,0,16.054-18.716,45.511-18.716
		c29.468,0,48.003,18.716,48.003,18.716l-13.915-104.891h-33.178H216.845z"/>
	<g>
		<path style="fill:#F5F8FA;" d="M205.722-242.872c6.44-6.44,33.211-122.311,33.211-122.311h-35.909l-19.387,29.15l19.387,32.256
			l-22.949,7.213l2.89,45.022C182.966-251.542,202.638-239.789,205.722-242.872"/>
		<path style="fill:#F5F8FA;" d="M294.899-242.872c-6.44-6.44-33.211-122.311-33.211-122.311h35.909l19.387,29.15l-19.387,32.256
			l22.949,7.213l-2.89,45.022C317.655-251.542,297.983-239.789,294.899-242.872"/>
	</g>
	<g>
		<g>
			<g>
				<g style="opacity:0.4;">
					<path style="fill:#FFFFFF;" d="M170.667-114.872v34.133h159.289v-56.889h-79.644h-79.644V-114.872z"/>
				</g>
			</g>
		</g>
		<path style="fill:#F5F8FA;" d="M329.956-114.872c0-15.076-9.694-22.756-34.133-22.756c-17.51,0-31.903,11.378-45.511,11.378
			s-28.001-11.378-45.511-11.378c-24.44,0-34.133,7.68-34.133,22.756v34.133h159.289V-114.872L329.956-114.872z M329.956-69.372
			H170.655c-11.378,0-11.366-11.366-11.366-11.366v-45.511c0-16.623,26.545-22.756,45.511-22.756s29.571,11.378,45.511,11.378
			s26.545-11.378,45.511-11.378s45.511,6.132,45.511,22.756v45.511C341.333-69.35,329.956-69.372,329.956-69.372"/>
	</g>
</g>
<g>
</g>
<g>
</g>
<g>
</g>
<g>
</g>
<g>
</g>
<g>
</g>
<g>
</g>
<g>
</g>
<g>
</g>
<g>
</g>
<g>
</g>
<g>
</g>
<g>
</g>
<g>
</g>
<g>
</g>
</svg>
