<?xml version="1.0" encoding="iso-8859-1"?>
<!-- Generator: Adobe Illustrator 19.0.0, SVG Export Plug-In . SVG Version: 6.00 Build 0)  -->
<svg version="1.1" id="Capa_1" xmlns="http://www.w3.org/2000/svg" xmlns:xlink="http://www.w3.org/1999/xlink" x="0px" y="0px"
	 viewBox="0 0 512 512" style="enable-background:new 0 0 512 512;" xml:space="preserve">
<g>
	<path style="fill:#D4702C;" d="M298.602,0h-85.203c-13.722,0-26.516,6.139-35.102,16.842s-11.803,24.525-8.826,37.919L183.967,120
		h144.065l14.497-65.238c2.978-13.395-0.239-27.216-8.825-37.919S312.323,0,298.602,0z M198.755,48.254
		c-0.992-4.465,0.08-9.072,2.942-12.64C204.56,32.046,208.824,30,213.398,30H241v60h-32.967L198.755,48.254z M313.244,48.254
		L303.968,90H271V30h27.602c4.574,0,8.839,2.046,11.701,5.614C313.164,39.182,314.236,43.789,313.244,48.254z"/>
	<path style="fill:#D4702C;" d="M328.032,392H183.967l-14.497,65.238c-2.977,13.395,0.24,27.216,8.826,37.919
		S199.677,512,213.398,512h85.203c13.722,0,26.517-6.139,35.103-16.843s11.803-24.525,8.825-37.919L328.032,392z M201.698,476.386
		c-2.862-3.568-3.935-8.175-2.942-12.64L208.033,422H241v60h-27.602C208.824,482,204.56,479.954,201.698,476.386z M310.303,476.386
		c-2.862,3.568-7.127,5.614-11.701,5.614H271v-60h32.968l9.276,41.747C314.236,468.211,313.164,472.818,310.303,476.386z"/>
</g>
<g>
	<path style="fill:#BD6015;" d="M256,120h72.032l14.497-65.238c2.978-13.395-0.239-27.216-8.825-37.919S312.323,0,298.602,0H256V120
		z M298.602,30c4.574,0,8.839,2.046,11.701,5.614c2.861,3.568,3.934,8.174,2.941,12.64L303.968,90H271V30H298.602z"/>
	<path style="fill:#BD6015;" d="M328.032,392H256v120h42.602c13.722,0,26.517-6.139,35.103-16.843s11.803-24.525,8.825-37.919
		L328.032,392z M310.303,476.386c-2.862,3.568-7.127,5.614-11.701,5.614H271v-60h32.968l9.276,41.747
		C314.236,468.211,313.164,472.818,310.303,476.386z"/>
</g>
<path style="fill:#D4702C;" d="M16.842,178.296C6.139,186.882,0,199.677,0,213.398v85.203c0,13.722,6.139,26.516,16.842,35.102
	c8.089,6.489,17.958,9.911,28.079,9.911c3.271,0,6.568-0.357,9.84-1.085L120,328.033V183.967L54.762,169.47
	C41.367,166.491,27.546,169.71,16.842,178.296z M48.254,313.245c-4.466,0.991-9.072-0.081-12.64-2.942
	C32.046,307.44,30,303.176,30,298.602V271h60v32.967L48.254,313.245z M90,241H30v-27.602c0-4.574,2.046-8.839,5.614-11.701
	c2.696-2.163,5.986-3.304,9.359-3.304c1.09,0,2.189,0.119,3.28,0.361L90,208.033V241z"/>
<path style="fill:#BD6015;" d="M495.157,178.296c-10.703-8.586-24.526-11.803-37.919-8.826L392,183.967v144.065l65.238,14.497
	c3.272,0.728,6.568,1.085,9.841,1.085c10.119,0,19.99-3.423,28.078-9.911c10.704-8.586,16.843-21.38,16.843-35.102v-85.203
	C512,199.677,505.861,186.882,495.157,178.296z M463.746,198.755c4.466-0.991,9.071,0.08,12.64,2.942
	c3.568,2.862,5.614,7.126,5.614,11.701V241h-60v-32.967L463.746,198.755z M476.386,310.302c-3.567,2.862-8.172,3.935-12.64,2.942
	L422,303.967V271h60v27.602C482,303.176,479.954,307.44,476.386,310.302z"/>
<path style="fill:#DE8144;" d="M422,422H90V90h332V422z"/>
<path style="fill:#D4702C;" d="M422,422H256V90h166V422z"/>
<g>
</g>
<g>
</g>
<g>
</g>
<g>
</g>
<g>
</g>
<g>
</g>
<g>
</g>
<g>
</g>
<g>
</g>
<g>
</g>
<g>
</g>
<g>
</g>
<g>
</g>
<g>
</g>
<g>
</g>
</svg>
