<?xml version="1.0" encoding="iso-8859-1"?>
<!-- Generator: Adobe Illustrator 19.0.0, SVG Export Plug-In . SVG Version: 6.00 Build 0)  -->
<svg version="1.1" id="Layer_1" xmlns="http://www.w3.org/2000/svg" xmlns:xlink="http://www.w3.org/1999/xlink" x="0px" y="0px"
	 viewBox="0 0 512 512" style="enable-background:new 0 0 512 512;" xml:space="preserve">
<path style="fill:#553732;" d="M397.241,141.241C388.414,61.793,334.005,0,256,0S123.586,61.793,114.759,141.241
	c-4.414,39.724-17.655,158.897-17.655,158.897S158.897,326.621,256,326.621s158.897-26.483,158.897-26.483
	S401.655,180.966,397.241,141.241z"/>
<path style="fill:#64463C;" d="M326.621,44.138c-35.31-17.655-79.448-8.828-79.448-8.828
	c26.483,70.621,61.793,105.931,61.793,105.931v182.684c66.006-6.725,105.931-23.787,105.931-23.787s-13.241-119.172-17.655-158.897
	C388.414,61.793,334.005,0,256,0C308.966,0,326.621,44.138,326.621,44.138z"/>
<path style="fill:#00BED2;" d="M300.138,317.793h-88.276l-104.074,32.523c-22.112,6.91-37.167,27.389-37.167,50.555v93.474
	c0,9.751,7.904,17.655,17.655,17.655h335.448c9.751,0,17.655-7.904,17.655-17.655v-93.474c0-23.166-15.055-43.645-37.167-50.555
	L300.138,317.793z"/>
<path style="fill:#B48764;" d="M317.793,370.759h-44.138l-14.26,49.91c-0.975,3.415-5.815,3.415-6.791,0l-14.26-49.91h-44.138
	v-88.276h123.586V370.759z"/>
<path style="fill:#966D50;" d="M194.207,282.483v77.471c80.126-11.039,123.586-68.643,123.586-68.643v-8.828H194.207z"/>
<path style="fill:#646464;" d="M256.001,264.831c-15.699,0-30.379-3.862-40.276-10.595c-4.03-2.75-5.074-8.242-2.332-12.267
	c2.741-4.034,8.237-5.078,12.263-2.336c6.94,4.724,18.28,7.543,30.345,7.543c12.061,0,23.405-2.819,30.345-7.543
	c4.034-2.75,9.526-1.689,12.263,2.336c2.745,4.034,1.698,9.526-2.332,12.267C286.377,260.969,271.695,264.831,256.001,264.831z"/>
<path style="fill:#C39772;" d="M353.103,168.168V97.103H158.897v143.495c0,15.091,7.71,29.135,20.441,37.237l48.226,30.689
	c17.35,11.041,39.522,11.041,56.872,0l48.226-30.689c12.732-8.102,20.441-22.146,20.441-37.237v-20.352
	c10.073-2.045,17.655-10.95,17.655-21.625v-8.828C370.759,179.116,363.177,170.212,353.103,168.168z"/>
<path style="fill:#B48764;" d="M206.086,132.939c40.863,14.988,101.507,21.327,147.018,23.999V97.103H194.207h-8.828h-26.483v71.064
	c-10.073,2.045-17.655,10.95-17.655,21.625v8.828c0,10.676,7.582,19.581,17.655,21.625v20.352c0,15.091,7.71,29.135,20.441,37.237
	l48.226,30.689c7.94,5.054,16.897,7.678,25.933,8.106c-32.871-14.496-50.478-48.469-56.68-62.846
	c-1.722-3.994-2.611-8.255-2.611-12.606v-99.997C194.207,135.018,200.298,130.816,206.086,132.939z"/>
<g>
	<path style="fill:#E4EAF6;" d="M194.207,308.966l44.138,61.793c0,0-17.655,17.655-35.31,44.138
		c-0.015,0.024-24.471-61.158-32.669-81.666c-1.549-3.875-0.157-8.267,3.316-10.582L194.207,308.966z"/>
	<path style="fill:#E4EAF6;" d="M317.793,308.966l-44.138,61.793c0,0,17.655,17.655,35.31,44.138
		c0.015,0.024,24.471-61.158,32.669-81.666c1.549-3.875,0.157-8.267-3.316-10.582L317.793,308.966z"/>
</g>
<path style="fill:#966D50;" d="M256.001,273.658c-10.754,0-21.173-2.146-30.13-6.207c-4.439-2.017-6.406-7.25-4.392-11.69
	c2.014-4.44,7.245-6.414,11.686-4.396c13.354,6.069,32.294,6.069,45.673,0c4.452-2.008,9.677-0.043,11.685,4.396
	c2.013,4.439,0.047,9.673-4.392,11.69C277.17,271.511,266.751,273.658,256.001,273.658z"/>
<g>
	<path style="fill:#00A6BD;" d="M379.586,512h44.138c9.751,0,17.655-7.904,17.655-17.655v-93.474c0-10.89-3.425-21.121-9.247-29.693
		l-42.204,42.204c-6.622,6.622-10.343,15.604-10.343,24.968V512z"/>
	<path style="fill:#00A6BD;" d="M132.414,512H88.276c-9.751,0-17.655-7.904-17.655-17.655v-93.474
		c0-10.89,3.425-21.121,9.247-29.693l42.204,42.204c6.622,6.622,10.343,15.604,10.343,24.968V512z"/>
</g>
<path style="fill:#D5DCEC;" d="M256,388.414c-4.578,0-8.874-0.567-13-1.362l9.604,33.618c0.975,3.415,5.815,3.415,6.791,0
	L269,387.052C264.874,387.847,260.578,388.414,256,388.414z"/>
<path style="fill:#553732;" d="M163.31,167.724c0,0,4.414-35.31,30.897-61.793c0,0,61.793,35.31,167.724,35.31V88.276H150.069
	v79.448H163.31z"/>
<g>
	<path style="fill:#464655;" d="M203.038,194.222c-0.922,0-1.866-0.147-2.793-0.457l-52.966-17.655
		c-4.625-1.543-7.125-6.543-5.582-11.168c1.543-4.621,6.535-7.147,11.168-5.582l52.966,17.655c4.625,1.543,7.125,6.543,5.582,11.168
		C210.18,191.882,206.737,194.222,203.038,194.222z"/>
	<path style="fill:#464655;" d="M308.969,194.222c0.922,0,1.866-0.147,2.793-0.457l52.966-17.655
		c4.625-1.543,7.125-6.543,5.582-11.168c-1.543-4.621-6.535-7.147-11.168-5.582l-52.966,17.655
		c-4.625,1.543-7.125,6.543-5.582,11.168C301.826,191.882,305.271,194.222,308.969,194.222z"/>
</g>
<path style="fill:#FFFFFF;" d="M229.517,211.873h-35.31c-4.875,0-8.828-3.953-8.828-8.828V185.39c0-4.875,3.953-8.828,8.828-8.828
	h35.31c4.875,0,8.828,3.953,8.828,8.828v17.655C238.345,207.922,234.392,211.873,229.517,211.873z"/>
<path style="fill:#5A4137;" d="M211.862,203.046L211.862,203.046c-4.855,0-8.828-3.972-8.828-8.828v-8.828
	c0-4.855,3.972-8.828,8.828-8.828l0,0c4.855,0,8.828,3.972,8.828,8.828v8.828C220.69,199.073,216.717,203.046,211.862,203.046z"/>
<path style="fill:#FFFFFF;" d="M282.483,211.873h35.31c4.875,0,8.828-3.953,8.828-8.828V185.39c0-4.875-3.953-8.828-8.828-8.828
	h-35.31c-4.875,0-8.828,3.953-8.828,8.828v17.655C273.655,207.922,277.608,211.873,282.483,211.873z"/>
<path style="fill:#5A4137;" d="M300.138,203.046L300.138,203.046c-4.855,0-8.828-3.972-8.828-8.828v-8.828
	c0-4.855,3.972-8.828,8.828-8.828l0,0c4.855,0,8.828,3.972,8.828,8.828v8.828C308.966,199.073,304.993,203.046,300.138,203.046z"/>
<path style="fill:#464655;" d="M273.655,203.046c-4.875,0-8.828-3.953-8.828-8.828c0-4.866-3.961-8.828-8.828-8.828
	s-8.828,3.961-8.828,8.828c0,4.875-3.953,8.828-8.828,8.828c-4.875,0-8.828-3.953-8.828-8.828c0-14.603,11.88-26.483,26.483-26.483
	s26.483,11.88,26.483,26.483C282.483,199.093,278.53,203.046,273.655,203.046z"/>
<g>
	<path style="fill:#707487;" d="M238.345,203.046c-4.875,0-8.828-3.953-8.828-8.828v-8.828h-35.31v8.828
		c0,4.875-3.953,8.828-8.828,8.828c-4.875,0-8.828-3.953-8.828-8.828v-8.828c0-9.737,7.918-17.655,17.655-17.655h35.31
		c9.737,0,17.655,7.918,17.655,17.655v8.828C247.172,199.093,243.22,203.046,238.345,203.046z"/>
	<path style="fill:#707487;" d="M326.621,203.046c-4.875,0-8.828-3.953-8.828-8.828v-8.828h-35.31v8.828
		c0,4.875-3.953,8.828-8.828,8.828s-8.828-3.953-8.828-8.828v-8.828c0-9.737,7.918-17.655,17.655-17.655h35.31
		c9.737,0,17.655,7.918,17.655,17.655v8.828C335.448,199.093,331.496,203.046,326.621,203.046z"/>
</g>
<path style="fill:#64463C;" d="M305.783,137.795c17.007,2.116,35.736,3.446,56.148,3.446V88.276h-90.286
	C286.34,114.592,299.859,131.125,305.783,137.795z"/>
<g>
</g>
<g>
</g>
<g>
</g>
<g>
</g>
<g>
</g>
<g>
</g>
<g>
</g>
<g>
</g>
<g>
</g>
<g>
</g>
<g>
</g>
<g>
</g>
<g>
</g>
<g>
</g>
<g>
</g>
</svg>
